<?xml version="1.0" encoding="utf-8"?>
<!-- Generator: Adobe Illustrator 16.0.0, SVG Export Plug-In . SVG Version: 6.00 Build 0)  -->
<!DOCTYPE svg PUBLIC "-//W3C//DTD SVG 1.1//EN" "http://www.w3.org/Graphics/SVG/1.1/DTD/svg11.dtd">
<svg version="1.1" id="Layer_1" xmlns="http://www.w3.org/2000/svg" xmlns:xlink="http://www.w3.org/1999/xlink" x="0px" y="0px"
	 width="40px" height="40px" viewBox="0 0 40 40" enable-background="new 0 0 40 40" xml:space="preserve">
<path fill="#365194" d="M19.993,0.25C9.089,0.25,0.25,9.089,0.25,19.992s8.839,19.745,19.743,19.745
	c10.904,0,19.743-8.842,19.743-19.745S30.897,0.25,19.993,0.25z M25.023,19.994h-3.471c0,5.236,0,11.693,0,11.693h-4.678
	c0,0,0-6.393,0-11.693h-2.339v-4.678h2.319v-2.112c0-1.914,0.911-4.902,4.921-4.902l3.614,0.017v4.004c0,0-2.198,0-2.624,0
	c-0.427,0-1.033,0.213-1.033,1.124v1.87h3.717L25.023,19.994z"/>
</svg>
