<?xml version="1.0" encoding="utf-8"?>
<!-- Generator: Adobe Illustrator 16.0.0, SVG Export Plug-In . SVG Version: 6.00 Build 0)  -->
<!DOCTYPE svg PUBLIC "-//W3C//DTD SVG 1.1//EN" "http://www.w3.org/Graphics/SVG/1.1/DTD/svg11.dtd">
<svg version="1.1" xmlns="http://www.w3.org/2000/svg" xmlns:xlink="http://www.w3.org/1999/xlink" x="0px" y="0px" width="40px"
	 height="40px" viewBox="0 0 40 40" enable-background="new 0 0 40 40" xml:space="preserve">
<g id="facebook" display="none">
	<path display="inline" fill="#365194" d="M19.993,0.25C9.089,0.25,0.25,9.089,0.25,19.992s8.839,19.745,19.743,19.745
		c10.904,0,19.743-8.842,19.743-19.745S30.897,0.25,19.993,0.25z M25.023,19.994h-3.471c0,5.236,0,11.693,0,11.693h-4.678
		c0,0,0-6.393,0-11.693h-2.339v-4.678h2.319v-2.112c0-1.914,0.911-4.902,4.921-4.902l3.614,0.017v4.004c0,0-2.198,0-2.624,0
		c-0.427,0-1.033,0.213-1.033,1.124v1.87h3.717L25.023,19.994z"/>
</g>
<g id="instagram" display="none">
	
		<linearGradient id="SVGID_1_" gradientUnits="userSpaceOnUse" x1="-603.9624" y1="-301.2808" x2="-578.0179" y2="-271.4351" gradientTransform="matrix(-1 0 0 -1 -570.9629 -266.4316)">
		<stop  offset="0" style="stop-color:#5A3C99"/>
		<stop  offset="0.4244" style="stop-color:#B92991"/>
		<stop  offset="0.4919" style="stop-color:#BE288A"/>
		<stop  offset="0.6131" style="stop-color:#CC2577"/>
		<stop  offset="0.7733" style="stop-color:#E32159"/>
		<stop  offset="0.7849" style="stop-color:#E52057"/>
		<stop  offset="0.8139" style="stop-color:#E62E58"/>
		<stop  offset="0.8692" style="stop-color:#EB535A"/>
		<stop  offset="0.9446" style="stop-color:#F18F58"/>
		<stop  offset="1" style="stop-color:#F7C153"/>
	</linearGradient>
	<path display="inline" fill="url(#SVGID_1_)" d="M27.068,9.947H12.985c-1.679,0-3.045,1.366-3.045,3.045v13.869
		c0,1.679,1.366,3.044,3.045,3.044h14.083c1.679,0,3.046-1.365,3.046-3.044V12.992C30.114,11.313,28.747,9.947,27.068,9.947z
		 M20.027,26.986c-3.894,0-7.061-3.166-7.061-7.059c0-3.895,3.167-7.062,7.061-7.062s7.061,3.167,7.061,7.062
		C27.088,23.82,23.921,26.986,20.027,26.986z M27.184,14.29c-0.617,0-1.114-0.497-1.114-1.114c0-0.613,0.497-1.116,1.114-1.116
		c0.614,0,1.115,0.503,1.115,1.116C28.299,13.793,27.798,14.29,27.184,14.29z"/>
	
		<linearGradient id="SVGID_2_" gradientUnits="userSpaceOnUse" x1="-603.9619" y1="-301.2812" x2="-578.0175" y2="-271.4356" gradientTransform="matrix(-1 0 0 -1 -570.9629 -266.4316)">
		<stop  offset="0" style="stop-color:#5A3C99"/>
		<stop  offset="0.4244" style="stop-color:#B92991"/>
		<stop  offset="0.4919" style="stop-color:#BE288A"/>
		<stop  offset="0.6131" style="stop-color:#CC2577"/>
		<stop  offset="0.7733" style="stop-color:#E32159"/>
		<stop  offset="0.7849" style="stop-color:#E52057"/>
		<stop  offset="0.8139" style="stop-color:#E62E58"/>
		<stop  offset="0.8692" style="stop-color:#EB535A"/>
		<stop  offset="0.9446" style="stop-color:#F18F58"/>
		<stop  offset="1" style="stop-color:#F7C153"/>
	</linearGradient>
	<path display="inline" fill="url(#SVGID_2_)" d="M20.027,14.576c-2.949,0-5.349,2.401-5.349,5.352c0,2.949,2.399,5.349,5.349,5.349
		c2.949,0,5.348-2.399,5.348-5.349C25.375,16.977,22.976,14.576,20.027,14.576z"/>
	
		<linearGradient id="SVGID_3_" gradientUnits="userSpaceOnUse" x1="-603.9624" y1="-301.2808" x2="-578.0179" y2="-271.4351" gradientTransform="matrix(-1 0 0 -1 -570.9629 -266.4316)">
		<stop  offset="0" style="stop-color:#5A3C99"/>
		<stop  offset="0.4244" style="stop-color:#B92991"/>
		<stop  offset="0.4919" style="stop-color:#BE288A"/>
		<stop  offset="0.6131" style="stop-color:#CC2577"/>
		<stop  offset="0.7733" style="stop-color:#E32159"/>
		<stop  offset="0.7849" style="stop-color:#E52057"/>
		<stop  offset="0.8139" style="stop-color:#E62E58"/>
		<stop  offset="0.8692" style="stop-color:#EB535A"/>
		<stop  offset="0.9446" style="stop-color:#F18F58"/>
		<stop  offset="1" style="stop-color:#F7C153"/>
	</linearGradient>
	<path display="inline" fill="url(#SVGID_3_)" d="M20.027,0.152c-10.919,0-19.772,8.853-19.772,19.775
		c0,10.918,8.853,19.772,19.772,19.772c10.918,0,19.772-8.854,19.772-19.772C39.799,9.005,30.945,0.152,20.027,0.152z
		 M31.863,26.861c0,2.644-2.151,4.793-4.795,4.793H12.985c-2.643,0-4.794-2.149-4.794-4.793V12.992c0-2.644,2.151-4.794,4.794-4.794
		h14.083c2.644,0,4.795,2.15,4.795,4.794V26.861z"/>
</g>
<g id="youtube">
	<path fill="#D41518" d="M20.037,0.25c-10.909,0-19.752,8.843-19.752,19.75c0,10.908,8.843,19.753,19.752,19.753
		c10.908,0,19.751-8.845,19.751-19.753C39.788,9.093,30.945,0.25,20.037,0.25z M29.977,22.401c0,2.701-2.19,4.892-4.893,4.892
		H14.989c-2.702,0-4.891-2.19-4.891-4.892v-4.795c0-2.701,2.189-4.892,4.891-4.892h10.095c2.702,0,4.893,2.19,4.893,4.892V22.401z"
		/>
	<path fill="#DB160C" d="M24.077,20.048l-6.639,3.586c-0.222,0.119-0.491-0.04-0.491-0.294l-0.003-7.199
		c0-0.253,0.271-0.414,0.492-0.292l6.642,3.615C24.31,19.589,24.31,19.922,24.077,20.048z"/>
</g>
</svg>
